<svg height="25" width="25" xmlns="http://www.w3.org/2000/svg"><path d="m23.44 23.44v-14.06h-10.94v-9.38h-10.94v23.44h-1.56v1.56h25v-1.56zm-20.32-21.88h3.13v3.14h-3.13zm0 4.69h3.13v3.13h-3.13zm0 4.69h3.13v3.12h-3.13zm0 4.68h3.13v3.13h-3.13zm6.26 7.82h-4.7v-3.14h4.7v3.13zm1.56-4.69h-3.14v-3.12h3.13v3.12zm0-4.69h-3.14v-3.12h3.13v3.12zm0-4.68h-3.14v-3.13h3.13v3.13zm0-4.7h-3.14v-3.11h3.13v3.13zm3.12 6.26h3.13v3.12h-3.13zm0 4.68h3.13v3.13h-3.13zm6.25 7.82h-4.69v-3.14h4.7v3.13zm1.57-4.69h-3.13v-3.12h3.13zm0-4.69h-3.13v-3.12h3.13z" fill="#59539b"/></svg>