<svg height="27" width="27" xmlns="http://www.w3.org/2000/svg"><path d="m19.063 14.985c-.2-.2-.467-.31-.75-.31-.284 0-.55.11-.751.31l-.922.922-1.352-1.352 4.143-4.143c.668.287 1.394.44 2.143.44a5.429 5.429 0 0 0 5.206-6.959.327.327 0 0 0 -.545-.139l-3.418 3.427c-.205-.083-.721-.366-1.678-1.32-.956-.953-1.241-1.469-1.325-1.673l3.417-3.428a.327.327 0 0 0 -.14-.545 5.447 5.447 0 0 0 -1.517-.215 5.388 5.388 0 0 0 -3.843 1.595 5.434 5.434 0 0 0 -1.14 5.973l-4.146 4.144-4.242-4.242-.01-.022-1.94-3.324a.455.455 0 0 0 -.134-.145l-3.269-2.269a.455.455 0 0 0 -.582.053l-1.458 1.456a.455.455 0 0 0 -.052.581l2.27 3.271c.037.055.087.1.144.134l3.325 1.939.022.011 4.242 4.242-3.192 3.191a5.413 5.413 0 0 0 -2.143-.44 5.428 5.428 0 0 0 -5.206 6.959.327.327 0 0 0 .545.14l3.417-3.428c.205.084.721.367 1.677 1.32.957.954 1.242 1.47 1.326 1.674l-3.416 3.427a.327.327 0 0 0 .14.545 5.442 5.442 0 0 0 1.517.215 5.389 5.389 0 0 0 3.843-1.595 5.39 5.39 0 0 0 1.583-3.84 5.413 5.413 0 0 0 -.44-2.135l3.191-3.191 1.352 1.352-.921.922c-.201.2-.311.467-.311.75 0 .284.11.55.31.751l6.512 6.512c.2.2.467.31.751.31s.55-.11.75-.31l3.529-3.528c.2-.2.31-.467.31-.75 0-.284-.11-.55-.31-.751zm2.775 8.853a.553.553 0 0 1 -.783 0l-3.893-3.893a.554.554 0 1 1 .783-.783l3.893 3.893a.553.553 0 0 1 0 .783zm1-2a.554.554 0 0 1 -.783 0l-3.893-3.893a.554.554 0 1 1 .783-.783l3.893 3.893a.554.554 0 0 1 0 .783z" fill="#59539b"/></svg>