<svg height="28" width="27" xmlns="http://www.w3.org/2000/svg"><path d="m23.74 1.03c0-.57-.48-1.03-1.07-1.03h-21.6a1.08 1.08 0 0 0 -.89.46 1 1 0 0 0 -.18.57v4.77a1 1 0 0 0 .47.86c.17.1.37.17.6.17h21.6c.6 0 1.07-.46 1.07-1.03v-1.6h1.06v3.42l-12.73 2.26a.78.78 0 0 0 -.65.76v3.32h-.81c-.6 0-1.07.46-1.07 1.03v11.71c0 .57.48 1.04 1.07 1.04h3.22c.59 0 1.07-.47 1.07-1.04v-11.7c0-.58-.48-1.04-1.07-1.04h-.81v-2.67l12.72-2.26a.78.78 0 0 0 .66-.76v-4.85a.79.79 0 0 0 -.8-.78h-1.86zm-9.7 2.28c1.03 0 1.03 1.55 0 1.55s-1.03-1.55 0-1.55zm8.26-2.34a.8.8 0 0 1 -.71.53c-.32.03-.63.09-.93.17-.1.72-.31 1.42-.31 2.16 0 .72-1.15 1.12-1.5.39-.77-1.69-1.46-2.06-3.27-2.04a8.56 8.56 0 0 1 -3.13-.55c-.46.06-.93.1-1.37.1-.32 1.05.18 1.93-.26 3-.24.58-1.1.82-1.46.18-.47-.82-.5-1.6-.77-2.08a.73.73 0 0 1 -.76.65c-.66 0-.9-.63-.71-1.09l-.53.1c-.96.24-1.77 0-2.58-.2v1.45a.8.8 0 0 1 -.8.77.8.8 0 0 1 -.8-.77v-1.64-.04c-.45.03-.93.15-1.46.46a.71.71 0 0 1 -.15.06v-1.55c0-.13.12-.25.27-.25h21.6c.14 0 .24.1.26.21z" fill="#59539b"/></svg>