<svg height="32" width="24" xmlns="http://www.w3.org/2000/svg"><g fill="#59539b"><path d="m11.76 15.67c1.9 0 6.36-2.3 6.36-7.83 0-.77-.02-1.52-.08-2.22a6.69 6.69 0 0 0 -1.08-3.56c-.9-1.28-2.47-2.06-5.2-2.06-2.74 0-4.3.78-5.2 2.06-.7.94-.99 2.17-1.1 3.56-.05.7-.07 1.45-.07 2.22 0 5.53 4.47 7.83 6.37 7.83zm2.07-12.8-.46 1.18a5.22 5.22 0 0 0 -3.23 0l-.46-1.18a6.46 6.46 0 0 1 4.15 0zm-7.5 3.77c.08.16.39.78.87.84.56.07 1.48-1.98 4.56-1.99 3.07 0 4 2.06 4.55 2 .48-.07.8-.69.87-.85l.02 1.2c0 2.7-1.19 4.37-2.18 5.3a5.54 5.54 0 0 1 -3.26 1.6c-.63 0-2.02-.43-3.27-1.6-1-.93-2.18-2.6-2.18-5.3l.03-1.2z"/><path d="m24 23.94c-.34-2.04-1.01-4.66-2.38-5.6-.93-.63-4.17-2.35-5.56-3.09l-.02-.01a.46.46 0 0 0 -.5.04 5.9 5.9 0 0 1 -2.36 1.13.45.45 0 0 0 -.32.28l-.86 2.25-.86-2.25a.45.45 0 0 0 -.32-.28 5.9 5.9 0 0 1 -2.37-1.13.46.46 0 0 0 -.49-.04c-1.37.72-4.65 2.48-5.58 3.1-1.57 1.06-2.25 4.86-2.37 5.6-.02.07 0 .15.02.22.03.1.63 1.63 3.74 2.73v-1a1.33 1.33 0 0 1 1.32-1.34c1.04 0 2.05-.09 3.04-.17 1.06-.09 2.15-.18 3.35-.18s2.35.1 3.5.3c.2.03.4.11.56.23h.12c.06-.12.15-.22.24-.32.02-.1.03-.22.03-.34v-.02a1.95 1.95 0 0 0 -.64-1.51c-.13-.08-.4-.26-.54-.62-.13-.34-.08-.73.13-1.03a1.14 1.14 0 0 1 1.22-.45c.78.16 1.4.58 1.8.9a5.6 5.6 0 0 1 1.8 3.12c.23.25.36.57.37.92l.01 1.56c3.25-1.1 3.86-2.68 3.9-2.78a.45.45 0 0 0 .01-.22z"/><path d="m19.32 28.97a.88.88 0 0 0 -.18-.13 7.5 7.5 0 0 1 0-.67.43.43 0 0 0 .3-.41l-.02-2.17a.43.43 0 0 0 -.28-.4 4.8 4.8 0 0 0 -1.57-2.92 3.25 3.25 0 0 0 -1.46-.72c-.1 0-.19.1-.15.2.03.09.16.14.22.2a2.91 2.91 0 0 1 1.04 2.35c-.01.3-.05.59-.12.88v.02a.43.43 0 0 0 -.34.42v.28a12.6 12.6 0 0 0 -1.38.03.35.35 0 0 0 -.3-.27 19.56 19.56 0 0 0 -3.37-.29c-1.16 0-2.24.1-3.3.18-1.02.09-2.07.17-3.16.18-.1 0-.18.04-.25.1a.35.35 0 0 0 -.1.25l.01 1.5a.36.36 0 0 0 .35.35h.43c.95 0 1.86.05 2.75.1.9.06 1.83.12 2.8.12 1.2 0 2.46-.09 3.88-.36a.35.35 0 0 0 .28-.29 17.5 17.5 0 0 0 1.39 0v.28c0 .18.11.33.27.4.01.23.02.47 0 .71a.86.86 0 0 0 -.38.72l.02.88c0 .23.1.45.26.61.17.16.39.25.62.25l1.15-.02a.88.88 0 0 0 .87-.87v-.88c-.01-.23-.1-.45-.27-.61z"/></g></svg>