<svg xmlns="http://www.w3.org/2000/svg" width="404" height="315"><path d="M314.30528 85.452341l.667.02v-45.86281L275.37405.00061035V103.7219c9.39899-11.242573 23.47866-18.265559 38.92993-18.265559m73.51665 54.065089l.02-.006-35.09233-34.60283c7.18039 9.06678 11.64728 20.71936 11.64728 33.59703 0 27.53545-23.53515 50.76281-49.4141 50.76281-15.74157 0-30.07934-6.99479-39.60353-18.62606v104.73249H0l39.58212 39.62112h275.40026V210.5204l3.48399 3.57409c9.36538 9.32108 22.19336 14.78687 36.11573 14.78687 25.88275 0 49.4179-23.21515 49.4179-50.7399-.006-15.42147-6.39909-29.02925-16.17457-38.62063m-263.44518 91.43403c27.51795 0 45.43521-7.94949 55.37339-25.86675v21.88935h43.40222V48.891613h-43.72222V70.44337c-11.61217-17.574365-30.17634-26.197448-56.05378-26.197448-26.86185 0-48.08831 8.623083-66.00567 27.512546-16.56857 17.265165-25.52915 40.469622-25.52915 65.358772 0 53.0486 39.46372 93.83812 92.53521 93.83812m.645-145.583819c26.20965 0 50.0823 23.215149 50.0823 53.060799 0 27.53015-23.54045 50.717-49.4019 50.717-27.86764 0-51.3974-21.86646-51.3974-52.7286 0-28.84514 23.20976-51.049199 50.717-51.049199" fill="#6cbe45"/>
</svg>
