<?xml version="1.0" encoding="UTF-8"?>
<svg width="31px" height="19px" viewBox="0 0 31 19" version="1.1" xmlns="http://www.w3.org/2000/svg" xmlns:xlink="http://www.w3.org/1999/xlink">
    <!-- Generator: Sketch 50.2 (55047) - http://www.bohemiancoding.com/sketch -->
    <title>left-arrow</title>
    <desc>Created with Sketch.</desc>
    <defs></defs>
    <g id="Page-1" stroke="none" stroke-width="1" fill="none" fill-rule="evenodd">
        <g id="Välj-Campus" transform="translate(-172.000000, -874.000000)" fill="#59539B" fill-rule="nonzero">
            <g id="Group-2" transform="translate(160.000000, 861.000000)">
                <g id="left-arrow" transform="translate(12.000000, 13.000000)">
                    <path d="M29.6580234,8.17434472 L4.58144419,8.17434472 L10.5650818,2.26292737 C11.0892866,1.74538934 11.0892866,0.905844666 10.5650818,0.388383197 C10.0408771,-0.129461066 9.19102059,-0.129461066 8.66759082,0.388383197 L0.393153568,8.5625748 C-0.131051189,9.08011282 -0.131051189,9.91973406 0.393153568,10.437119 L8.66759082,18.6116934 C8.9296157,18.8706921 9.27301477,19 9.61633634,19 C9.9596579,19 10.303057,18.8706921 10.5650818,18.6116934 C11.0892866,18.0941553 11.0892866,17.2546107 10.5650818,16.7372257 L4.58144419,10.8255022 L29.6580234,10.8255022 C30.399071,10.8255022 31,10.2319412 31,9.49988516 C31,8.76782915 30.3991485,8.17434472 29.6580234,8.17434472 Z" id="Shape"></path>
                </g>
            </g>
        </g>
    </g>
</svg>