<?xml version="1.0" encoding="UTF-8"?>
<svg width="24" height="32" xmlns="http://www.w3.org/2000/svg">
<!--Generator: Sketch 50.2 (55047) - http://www.bohemiancoding.com/sketch-->
  <g fill="#59539B" fill-rule="nonzero">
    <path d="M11.8 15.7c1.9 0 6.3-2.3 6.3-7.9V5.6A6.7 6.7 0 0 0 17 2.1C16 .8 14.5 0 11.8 0 9 0 7.5.8 6.6 2c-.7 1-1 2.2-1.1 3.6l-.1 2.2c0 5.6 4.5 7.9 6.4 7.9zm2-12.8L13.4 4c-1.2-.4-2-.4-3.3 0l-.4-1.2c1.5-.5 2.6-.5 4.1 0zM6.3 6.6c.1.2.4.8.9.9.6 0 1.5-2 4.6-2 3 0 4 2 4.5 2s.8-.7.9-.9v1.2a7 7 0 0 1-2.2 5.3 5.5 5.5 0 0 1-3.2 1.6c-.7 0-2-.4-3.3-1.6a7 7 0 0 1-2.2-5.3V6.6z"/>
    <path d="M24 24c-.3-2.1-1-4.7-2.4-5.7l-5.5-3h-.6c-.7.5-1.5 1-2.3 1.1-.2 0-.3.2-.3.3l-.9 2.2-.9-2.2c0-.1-.1-.3-.3-.3-.8-.2-1.6-.6-2.3-1.1a.5.5 0 0 0-.5 0c-1.4.7-4.7 2.4-5.6 3C.8 19.3 0 23.2 0 24v.3s.7 1.6 3.8 2.7v-1A1.3 1.3 0 0 1 5 24.6l3-.2a39 39 0 0 1 6.9.1l.5.2h.2l.2-.3v-.3a2 2 0 0 0-.6-1.6c-.1 0-.4-.2-.5-.6-.2-.3-.1-.7 0-1a1.1 1.1 0 0 1 1.3-.5c.8.2 1.4.6 1.8 1 1 .9 1.6 2 1.8 3 .2.3.4.6.4 1v1.5c3.2-1 3.8-2.6 3.9-2.7v-.3z"/>
    <path d="M19.3 29l-.2-.2v-.6c.2 0 .3-.2.3-.4v-2.2c0-.2-.1-.3-.3-.4a4.8 4.8 0 0 0-1.5-3 3.2 3.2 0 0 0-1.5-.6s-.2 0-.1.2l.2.1.5.6c.4.5.6 1.2.5 1.8l-.1.9c-.2 0-.3.2-.3.4v.3a12.6 12.6 0 0 0-1.4 0l-.3-.2c-1.2-.3-2.3-.3-3.4-.3-1.2 0-2.2 0-3.3.2a39.1 39.1 0 0 1-3.4.2l-.1.3v1.5l.1.2.3.1h.4l2.7.1 2.8.1c1.2 0 2.5 0 4-.3l.2-.3a17.5 17.5 0 0 0 1.4 0v.3c0 .2 0 .3.2.4V29l-.3.6v.9c0 .2 0 .4.3.6.1.2.3.2.6.2h1.1a.9.9 0 0 0 .9-.8v-1c0-.2-.1-.4-.3-.5z"/>
  </g>
</svg>
