<?xml version="1.0" encoding="UTF-8"?>
<svg width="25" height="25" xmlns="http://www.w3.org/2000/svg">
<!--Generator: Sketch 50.2 (55047) - http://www.bohemiancoding.com/sketch-->
  <path d="M23.4 23.4v-14H12.5V0h-11v23.4H0V25h25v-1.6h-1.6zM3.1 1.6h3.2v3H3v-3zm0 4.7h3.2v3H3v-3zm0 4.6h3.2v3.2H3v-3.2zm0 4.7h3.2v3.1H3v-3zm6.3 7.8H4.7v-3h4.7v3zm1.5-4.7H8v-3h3v3zm0-4.6H8v-3.2h3v3.2zm0-4.7H8V6.3h3v3zm0-4.7H8V1.6h3v3zm3.2 6.2h3v3.2h-3v-3.2zm0 4.7h3v3.1h-3v-3zm6.2 7.8h-4.7v-3h4.7v3zm1.6-4.7h-3.2v-3H22v3zm0-4.6h-3.2v-3.2H22v3.2z" fill="#59539B" fill-rule="nonzero"/>
</svg>
