<?xml version="1.0" encoding="utf-8"?>
<!-- Generator: Adobe Illustrator 16.0.0, SVG Export Plug-In . SVG Version: 6.00 Build 0)  -->
<!DOCTYPE svg PUBLIC "-//W3C//DTD SVG 1.1//EN" "http://www.w3.org/Graphics/SVG/1.1/DTD/svg11.dtd">
<svg version="1.1" id="Lager_1" xmlns="http://www.w3.org/2000/svg" xmlns:xlink="http://www.w3.org/1999/xlink" x="0px" y="0px"
	 width="841.89px" height="595.275px" viewBox="0 0 841.89 595.275" enable-background="new 0 0 841.89 595.275"
	 xml:space="preserve">
<path fill="#FFFFFF" d="M523.688,188.808l0.509,0.013v-35.079l-30.282-30.293v79.329
	C501.096,194.177,511.871,188.808,523.688,188.808z M579.915,230.156l0.011-0.004l-26.838-26.466
	c5.493,6.938,8.906,15.854,8.906,25.703c0,21.061-18.001,38.823-37.793,38.823c-12.039,0-23.001-5.349-30.287-14.248v80.102H283.292
	l30.274,30.302h210.63v-79.909l2.664,2.737c7.166,7.125,16.974,11.31,27.622,11.31c19.799,0,37.799-17.76,37.799-38.813
	C592.281,247.901,587.387,237.495,579.915,230.156z M378.419,300.094c21.051,0,34.749-6.081,42.358-19.785v16.74h33.19V160.842
	h-33.439v16.483c-8.882-13.443-23.081-20.036-42.869-20.036c-20.55,0-36.779,6.593-50.481,21.045
	c-12.676,13.203-19.527,30.954-19.527,49.987C307.65,268.896,337.831,300.094,378.419,300.094z M378.918,188.747
	c20.048,0,38.304,17.751,38.304,40.581c0,21.055-18.009,38.792-37.787,38.792c-21.312,0-39.313-16.72-39.313-40.324
	C340.123,205.729,357.875,188.747,378.918,188.747z"/>
<path d="M284.043,417.438h15.882c10.76,0,17.574,6.115,17.574,27.865c0,21.443-6.27,27.864-18.423,27.864h-15.033V417.438z
	 M289.611,468.172h8.563c8.011,0,13.744-2.231,13.744-22.868c0-21.249-6.506-22.86-13.895-22.86h-8.412V468.172z"/>
<path d="M354.599,422.401h-22.32v19.356h22.113v5.279h-22.113v21.171h22.861v4.96h-28.538v-55.729h27.997V422.401z"/>
<path d="M580.314,441.612h20.424v-24.174h5.799v55.729h-5.799v-26.047h-20.424v26.047h-5.801v-55.729h5.801V441.612z"/>
<path d="M650.453,417.438v41.104c0,10.525-8.701,15.71-16.664,15.71c-6.404,0-16.744-3.404-16.744-18.808v-38.006h5.494v39.729
	c0,8.048,6.486,11.735,11.25,11.735c7.557,0,11.17-6.164,11.17-12.433v-39.032H650.453z"/>
<polygon points="232.476,473.168 215.419,438.698 231.77,417.438 224.701,417.438 203.979,445.179 203.979,417.438 198.442,417.438 
	198.442,473.168 203.979,473.168 203.979,453.574 211.656,443.593 226.068,473.168 "/>
<polygon points="508.68,473.168 491.623,438.698 507.975,417.438 500.904,417.438 480.182,445.179 480.182,417.438 474.641,417.438 
	474.641,473.168 480.182,473.168 480.182,453.574 487.857,443.596 502.27,473.168 "/>
<path d="M397.576,417.438h6.148v55.729h-5.574v-45.17l-13.227,24.451l-13.154-24.3v45.019h-5.555v-55.729h6.055l12.654,23.687
	L397.576,417.438z"/>
<path d="M173.843,417.438h-4.496l-17.088,55.729h5.711l4.848-16.052h17.541l4.849,16.052h5.774L173.843,417.438z M164.279,452.003
	l7.268-24.17l7.355,24.17H164.279z"/>
<path d="M535.045,417.438h-4.494l-17.09,55.729h5.713l4.848-16.052h17.541l4.848,16.052h5.775L535.045,417.438z M525.482,452.003
	l7.268-24.17l7.354,24.17H525.482z"/>
<path d="M259.36,417.438h-4.496l-17.088,55.729h5.711l4.849-16.052h17.539l4.849,16.052h5.775L259.36,417.438z M249.795,452.003
	l7.267-24.17l7.355,24.17H249.795z"/>
<path d="M460.232,427.215c-3.422-3.031-7.311-6.187-12.129-6.187c-4.973,0-9.016,3.31-9.016,8.44c0,2.955,0.545,5.596,8.084,10.181
	l4.434,2.722c10.258,6.295,13.055,9.249,13.055,15.779c0,10.025-6.686,16.013-16.48,16.013c-7.225,0-12.588-3.497-16.941-9.096
	l4.506-3.575c2.723,4.354,7.186,7.659,12.551,7.659c5.826,0,10.648-4.24,10.648-10.226c0-4.508-0.426-6.06-10.293-11.97
	l-5.055-3.029c-5.52-3.265-10.338-7.071-10.338-14.069c0-8.783,6.688-13.838,15.082-13.838c5.828,0,11.191,3.112,15.389,6.999
	L460.232,427.215z"/>
<path d="M686.355,427.215c-3.424-3.031-7.313-6.187-12.129-6.187c-4.977,0-9.02,3.31-9.02,8.44c0,2.955,0.545,5.596,8.084,10.181
	l4.434,2.722c10.256,6.295,13.057,9.249,13.057,15.779c0,10.025-6.688,16.013-16.48,16.013c-7.227,0-12.59-3.497-16.941-9.096
	l4.506-3.575c2.721,4.354,7.186,7.659,12.549,7.659c5.83,0,10.65-4.24,10.65-10.226c0-4.508-0.424-6.06-10.295-11.97l-5.053-3.029
	c-5.52-3.265-10.34-7.071-10.34-14.069c0-8.783,6.688-13.838,15.08-13.838c5.832,0,11.193,3.112,15.389,6.999L686.355,427.215z"/>
<polygon points="421.553,473.168 416.082,473.168 416.082,430.143 416.082,417.438 421.553,417.438 "/>
</svg>
