<?xml version="1.0" encoding="UTF-8"?>
<svg width="27" height="27" xmlns="http://www.w3.org/2000/svg">
<!--Generator: Sketch 50.2 (55047) - http://www.bohemiancoding.com/sketch-->
  <path d="M19 15a1 1 0 0 0-1.4 0l-1 1-1.3-1.4 4.1-4.2a5.4 5.4 0 0 0 6-1.2c1.4-1.3 2-3.4 1.4-5.3a.3.3 0 0 0-.6-.1l-3.4 3.4c-.2-.1-.7-.4-1.7-1.3-1-1-1.2-1.5-1.3-1.7L23.2.8a.3.3 0 0 0-.1-.6 5.4 5.4 0 0 0-5.4 1.4c-1.6 1.6-2 4-1.1 6l-4.2 4.1-4.2-4.2-2-3.4V4L2.7 1.7a.5.5 0 0 0-.5 0L.8 3.3c-.1.2-.2.4 0 .6L3 7.1l.2.1 3.3 2 4.3 4.2-3.2 3.2A5.4 5.4 0 0 0 .2 23a.3.3 0 0 0 .6.1l3.4-3.4c.2.1.7.4 1.7 1.3 1 1 1.2 1.5 1.3 1.7l-3.4 3.4a.3.3 0 0 0 .1.6 5.4 5.4 0 0 0 6.5-7.4l3.2-3.2 1.4 1.4-1 1a1 1 0 0 0 0 1.4l6.5 6.5a1 1 0 0 0 1.5 0l3.6-3.5a1 1 0 0 0 0-1.5L19 15zm2.8 8.8c-.2.3-.5.3-.7 0L17 20a.6.6 0 1 1 .8-.7l4 3.9c.2.2.2.5 0 .7zm1-2c-.2.3-.5.3-.7 0L18 18a.6.6 0 1 1 .8-.7l4 3.9c.2.2.2.5 0 .7z" fill="#59539B" fill-rule="nonzero"/>
</svg>
